<?xml version="1.0" encoding="iso-8859-1"?>
<!-- Uploaded to: SVG Repo, www.svgrepo.com, Generator: SVG Repo Mixer Tools -->
<svg height="800px" width="800px" version="1.1" id="Layer_1" xmlns="http://www.w3.org/2000/svg" xmlns:xlink="http://www.w3.org/1999/xlink" 
	 viewBox="0 0 512 512" xml:space="preserve">
<circle style="fill:#BFA993;" cx="256" cy="281.86" r="219.809"/>
<path style="fill:#B29A7E;" d="M475.809,281.86c0-121.398-98.412-219.809-219.808-219.809v439.618
	C377.397,501.669,475.809,403.258,475.809,281.86z"/>
<polygon style="fill:#F8E99B;" points="333.581,307.72 256.001,385.299 178.422,307.72 204.282,204.28 307.721,204.28 "/>
<polygon style="fill:#F6E27D;" points="307.721,204.28 256.001,204.28 256.001,385.299 333.581,307.72 "/>
<circle style="fill:#F8F8F9;" cx="139.63" cy="281.86" r="77.58"/>
<circle style="fill:#EDEDED;" cx="372.37" cy="281.86" r="77.58"/>
<path style="fill:#EBE4DD;" d="M512,33.054c-30.297-30.297-79.418-30.297-109.714,0L256,179.34L109.714,33.054
	C79.418,2.758,30.297,2.758,0,33.054l256,256L512,33.054z"/>
<path style="fill:#D8CCBC;" d="M402.286,33.054L256,179.34v109.716l256-256C481.704,2.758,432.583,2.758,402.286,33.054z"/>
<path style="fill:#58575D;" d="M139.63,307.72h-0.004c-14.257,0-25.856-11.601-25.856-25.86c0.005-14.262,11.606-25.86,25.86-25.86
	c14.259,0,25.86,11.601,25.86,25.86C165.49,296.119,153.89,307.72,139.63,307.72z"/>
<path style="fill:#454449;" d="M372.37,307.72h-0.004c-14.257,0-25.856-11.601-25.856-25.86c0.005-14.262,11.606-25.86,25.86-25.86
	c14.259,0,25.86,11.601,25.86,25.86C398.229,296.119,386.629,307.72,372.37,307.72z"/>
</svg>